<?xml version="1.0" standalone="no"?>
<!DOCTYPE svg PUBLIC "-//W3C//DTD SVG 20010904//EN"
 "http://www.w3.org/TR/2001/REC-SVG-20010904/DTD/svg10.dtd">
<svg version="1.0" xmlns="http://www.w3.org/2000/svg"
 width="180.000000pt" height="180.000000pt" viewBox="0 0 180.000000 180.000000"
 preserveAspectRatio="xMidYMid meet">

<g transform="translate(0.000000,180.000000) scale(0.100000,-0.100000)"
fill="#000000" stroke="none">
<path d="M0 900 l0 -900 900 0 900 0 0 900 0 900 -900 0 -900 0 0 -900z m1148
806 c80 -44 82 -180 2 -221 -16 -8 -49 -15 -74 -15 -36 0 -52 6 -80 31 -60 52
-61 126 -1 186 28 28 40 33 82 33 26 -1 58 -6 71 -14z m-170 -251 c115 -60
171 -151 191 -313 5 -41 7 -98 4 -129 l-6 -54 -50 103 c-39 82 -63 116 -116
168 -68 68 -113 90 -182 90 -82 0 -217 -54 -331 -133 -38 -26 -68 -43 -68 -38
0 5 26 45 58 88 166 221 344 300 500 218z m252 -100 c84 -56 201 -178 236
-247 20 -38 28 -73 32 -126 4 -66 2 -78 -27 -137 -38 -78 -102 -136 -179 -165
-75 -28 -195 -43 -267 -33 l-58 8 59 24 c143 57 269 159 295 238 35 107 -24
291 -144 446 -16 20 -26 37 -22 37 4 0 38 -20 75 -45z m-970 -168 c33 -17 70
-74 70 -109 0 -44 -24 -92 -56 -113 -40 -26 -112 -25 -151 3 -97 69 -48 232
69 232 24 0 54 -6 68 -13z m545 -27 c27 -6 28 -8 10 -15 -147 -56 -277 -151
-314 -228 -24 -49 -28 -136 -10 -202 16 -57 73 -169 125 -242 24 -35 41 -63
38 -63 -20 0 -132 87 -200 155 -102 100 -135 162 -142 263 -4 66 -2 78 27 137
53 107 146 171 284 194 63 11 142 11 182 1z m882 -315 c34 -23 56 -80 50 -129
-17 -123 -195 -144 -244 -29 -18 45 -12 92 17 133 35 50 121 62 177 25z
m-1007 -75 c30 -72 102 -181 146 -219 114 -101 275 -80 488 63 38 26 71 45 73
43 5 -5 -60 -100 -106 -155 -86 -104 -222 -181 -316 -182 -176 0 -300 132
-324 346 -9 75 -3 181 9 167 4 -4 17 -33 30 -63z m121 -453 c22 -15 39 -38 49
-65 13 -37 13 -47 0 -84 -37 -103 -174 -118 -230 -25 -72 117 67 250 181 174z"/>
</g>
</svg>
