G04 EAGLE Gerber RS-274X export*
G75*
%MOMM*%
%FSLAX34Y34*%
%LPD*%
%INBottom Copper*%
%IPPOS*%
%AMOC8*
5,1,8,0,0,1.08239X$1,22.5*%
G01*
G04 Define Apertures*
%ADD10C,1.508000*%
%ADD11C,1.950000*%
%ADD12C,1.530000*%
%ADD13C,1.430000*%
%ADD14C,1.581000*%
G36*
X849375Y10220D02*
X849625Y10392D01*
X849789Y10647D01*
X849840Y10922D01*
X849840Y569078D01*
X849780Y569375D01*
X849608Y569625D01*
X849353Y569789D01*
X849078Y569840D01*
X10922Y569840D01*
X10625Y569780D01*
X10375Y569608D01*
X10211Y569353D01*
X10160Y569078D01*
X10160Y10922D01*
X10220Y10625D01*
X10392Y10375D01*
X10647Y10211D01*
X10922Y10160D01*
X849078Y10160D01*
X849375Y10220D01*
G37*
%LPC*%
G36*
X806490Y503340D02*
X799710Y505157D01*
X793630Y508667D01*
X788667Y513630D01*
X785157Y519710D01*
X783340Y526490D01*
X783340Y533510D01*
X785157Y540290D01*
X788667Y546370D01*
X793630Y551333D01*
X799710Y554843D01*
X806490Y556660D01*
X813510Y556660D01*
X820290Y554843D01*
X826370Y551333D01*
X831333Y546370D01*
X834843Y540290D01*
X836660Y533510D01*
X836660Y526490D01*
X834843Y519710D01*
X831333Y513630D01*
X826370Y508667D01*
X820290Y505157D01*
X813510Y503340D01*
X806490Y503340D01*
G37*
G36*
X471610Y529662D02*
X471610Y530927D01*
X473161Y534672D01*
X476028Y537539D01*
X479773Y539090D01*
X481038Y539090D01*
X481038Y529662D01*
X471610Y529662D01*
G37*
G36*
X344610Y529662D02*
X344610Y530927D01*
X346161Y534672D01*
X349028Y537539D01*
X352773Y539090D01*
X354038Y539090D01*
X354038Y529662D01*
X344610Y529662D01*
G37*
G36*
X217610Y529662D02*
X217610Y530927D01*
X219161Y534672D01*
X222028Y537539D01*
X225773Y539090D01*
X227038Y539090D01*
X227038Y529662D01*
X217610Y529662D01*
G37*
G36*
X90610Y529662D02*
X90610Y530927D01*
X92161Y534672D01*
X95028Y537539D01*
X98773Y539090D01*
X100038Y539090D01*
X100038Y529662D01*
X90610Y529662D01*
G37*
G36*
X101562Y529662D02*
X101562Y539090D01*
X102827Y539090D01*
X106572Y537539D01*
X109439Y534672D01*
X110990Y530927D01*
X110990Y529662D01*
X101562Y529662D01*
G37*
G36*
X228562Y529662D02*
X228562Y539090D01*
X229827Y539090D01*
X233572Y537539D01*
X236439Y534672D01*
X237990Y530927D01*
X237990Y529662D01*
X228562Y529662D01*
G37*
G36*
X355562Y529662D02*
X355562Y539090D01*
X356827Y539090D01*
X360572Y537539D01*
X363439Y534672D01*
X364990Y530927D01*
X364990Y529662D01*
X355562Y529662D01*
G37*
G36*
X482562Y529662D02*
X482562Y539090D01*
X483827Y539090D01*
X487572Y537539D01*
X490439Y534672D01*
X491990Y530927D01*
X491990Y529662D01*
X482562Y529662D01*
G37*
G36*
X530775Y519726D02*
X527403Y521123D01*
X524823Y523703D01*
X523426Y527075D01*
X523426Y530725D01*
X524823Y534097D01*
X527403Y536677D01*
X530775Y538074D01*
X534425Y538074D01*
X537797Y536677D01*
X540377Y534097D01*
X541774Y530725D01*
X541774Y527075D01*
X540377Y523703D01*
X537797Y521123D01*
X534425Y519726D01*
X530775Y519726D01*
G37*
G36*
X505375Y519726D02*
X502003Y521123D01*
X499423Y523703D01*
X498026Y527075D01*
X498026Y530725D01*
X499423Y534097D01*
X502003Y536677D01*
X505375Y538074D01*
X509025Y538074D01*
X512397Y536677D01*
X514977Y534097D01*
X516374Y530725D01*
X516374Y527075D01*
X514977Y523703D01*
X512397Y521123D01*
X509025Y519726D01*
X505375Y519726D01*
G37*
G36*
X454575Y519726D02*
X451203Y521123D01*
X448623Y523703D01*
X447226Y527075D01*
X447226Y530725D01*
X448623Y534097D01*
X451203Y536677D01*
X454575Y538074D01*
X458225Y538074D01*
X461597Y536677D01*
X464177Y534097D01*
X465574Y530725D01*
X465574Y527075D01*
X464177Y523703D01*
X461597Y521123D01*
X458225Y519726D01*
X454575Y519726D01*
G37*
G36*
X429175Y519726D02*
X425803Y521123D01*
X423223Y523703D01*
X421826Y527075D01*
X421826Y530725D01*
X423223Y534097D01*
X425803Y536677D01*
X429175Y538074D01*
X432825Y538074D01*
X436197Y536677D01*
X438777Y534097D01*
X440174Y530725D01*
X440174Y527075D01*
X438777Y523703D01*
X436197Y521123D01*
X432825Y519726D01*
X429175Y519726D01*
G37*
G36*
X403775Y519726D02*
X400403Y521123D01*
X397823Y523703D01*
X396426Y527075D01*
X396426Y530725D01*
X397823Y534097D01*
X400403Y536677D01*
X403775Y538074D01*
X407425Y538074D01*
X410797Y536677D01*
X413377Y534097D01*
X414774Y530725D01*
X414774Y527075D01*
X413377Y523703D01*
X410797Y521123D01*
X407425Y519726D01*
X403775Y519726D01*
G37*
G36*
X378375Y519726D02*
X375003Y521123D01*
X372423Y523703D01*
X371026Y527075D01*
X371026Y530725D01*
X372423Y534097D01*
X375003Y536677D01*
X378375Y538074D01*
X382025Y538074D01*
X385397Y536677D01*
X387977Y534097D01*
X389374Y530725D01*
X389374Y527075D01*
X387977Y523703D01*
X385397Y521123D01*
X382025Y519726D01*
X378375Y519726D01*
G37*
G36*
X327575Y519726D02*
X324203Y521123D01*
X321623Y523703D01*
X320226Y527075D01*
X320226Y530725D01*
X321623Y534097D01*
X324203Y536677D01*
X327575Y538074D01*
X331225Y538074D01*
X334597Y536677D01*
X337177Y534097D01*
X338574Y530725D01*
X338574Y527075D01*
X337177Y523703D01*
X334597Y521123D01*
X331225Y519726D01*
X327575Y519726D01*
G37*
G36*
X302175Y519726D02*
X298803Y521123D01*
X296223Y523703D01*
X294826Y527075D01*
X294826Y530725D01*
X296223Y534097D01*
X298803Y536677D01*
X302175Y538074D01*
X305825Y538074D01*
X309197Y536677D01*
X311777Y534097D01*
X313174Y530725D01*
X313174Y527075D01*
X311777Y523703D01*
X309197Y521123D01*
X305825Y519726D01*
X302175Y519726D01*
G37*
G36*
X276775Y519726D02*
X273403Y521123D01*
X270823Y523703D01*
X269426Y527075D01*
X269426Y530725D01*
X270823Y534097D01*
X273403Y536677D01*
X276775Y538074D01*
X280425Y538074D01*
X283797Y536677D01*
X286377Y534097D01*
X287774Y530725D01*
X287774Y527075D01*
X286377Y523703D01*
X283797Y521123D01*
X280425Y519726D01*
X276775Y519726D01*
G37*
G36*
X251375Y519726D02*
X248003Y521123D01*
X245423Y523703D01*
X244026Y527075D01*
X244026Y530725D01*
X245423Y534097D01*
X248003Y536677D01*
X251375Y538074D01*
X255025Y538074D01*
X258397Y536677D01*
X260977Y534097D01*
X262374Y530725D01*
X262374Y527075D01*
X260977Y523703D01*
X258397Y521123D01*
X255025Y519726D01*
X251375Y519726D01*
G37*
G36*
X200575Y519726D02*
X197203Y521123D01*
X194623Y523703D01*
X193226Y527075D01*
X193226Y530725D01*
X194623Y534097D01*
X197203Y536677D01*
X200575Y538074D01*
X204225Y538074D01*
X207597Y536677D01*
X210177Y534097D01*
X211574Y530725D01*
X211574Y527075D01*
X210177Y523703D01*
X207597Y521123D01*
X204225Y519726D01*
X200575Y519726D01*
G37*
G36*
X175175Y519726D02*
X171803Y521123D01*
X169223Y523703D01*
X167826Y527075D01*
X167826Y530725D01*
X169223Y534097D01*
X171803Y536677D01*
X175175Y538074D01*
X178825Y538074D01*
X182197Y536677D01*
X184777Y534097D01*
X186174Y530725D01*
X186174Y527075D01*
X184777Y523703D01*
X182197Y521123D01*
X178825Y519726D01*
X175175Y519726D01*
G37*
G36*
X149775Y519726D02*
X146403Y521123D01*
X143823Y523703D01*
X142426Y527075D01*
X142426Y530725D01*
X143823Y534097D01*
X146403Y536677D01*
X149775Y538074D01*
X153425Y538074D01*
X156797Y536677D01*
X159377Y534097D01*
X160774Y530725D01*
X160774Y527075D01*
X159377Y523703D01*
X156797Y521123D01*
X153425Y519726D01*
X149775Y519726D01*
G37*
G36*
X124375Y519726D02*
X121003Y521123D01*
X118423Y523703D01*
X117026Y527075D01*
X117026Y530725D01*
X118423Y534097D01*
X121003Y536677D01*
X124375Y538074D01*
X128025Y538074D01*
X131397Y536677D01*
X133977Y534097D01*
X135374Y530725D01*
X135374Y527075D01*
X133977Y523703D01*
X131397Y521123D01*
X128025Y519726D01*
X124375Y519726D01*
G37*
G36*
X73575Y519726D02*
X70203Y521123D01*
X67623Y523703D01*
X66226Y527075D01*
X66226Y530725D01*
X67623Y534097D01*
X70203Y536677D01*
X73575Y538074D01*
X77225Y538074D01*
X80597Y536677D01*
X83177Y534097D01*
X84574Y530725D01*
X84574Y527075D01*
X83177Y523703D01*
X80597Y521123D01*
X77225Y519726D01*
X73575Y519726D01*
G37*
G36*
X48175Y519726D02*
X44803Y521123D01*
X42223Y523703D01*
X40826Y527075D01*
X40826Y530725D01*
X42223Y534097D01*
X44803Y536677D01*
X48175Y538074D01*
X51825Y538074D01*
X55197Y536677D01*
X57777Y534097D01*
X59174Y530725D01*
X59174Y527075D01*
X57777Y523703D01*
X55197Y521123D01*
X51825Y519726D01*
X48175Y519726D01*
G37*
G36*
X482562Y518710D02*
X482562Y528138D01*
X491990Y528138D01*
X491990Y526873D01*
X490439Y523128D01*
X487572Y520261D01*
X483827Y518710D01*
X482562Y518710D01*
G37*
G36*
X479773Y518710D02*
X476028Y520261D01*
X473161Y523128D01*
X471610Y526873D01*
X471610Y528138D01*
X481038Y528138D01*
X481038Y518710D01*
X479773Y518710D01*
G37*
G36*
X355562Y518710D02*
X355562Y528138D01*
X364990Y528138D01*
X364990Y526873D01*
X363439Y523128D01*
X360572Y520261D01*
X356827Y518710D01*
X355562Y518710D01*
G37*
G36*
X352773Y518710D02*
X349028Y520261D01*
X346161Y523128D01*
X344610Y526873D01*
X344610Y528138D01*
X354038Y528138D01*
X354038Y518710D01*
X352773Y518710D01*
G37*
G36*
X228562Y518710D02*
X228562Y528138D01*
X237990Y528138D01*
X237990Y526873D01*
X236439Y523128D01*
X233572Y520261D01*
X229827Y518710D01*
X228562Y518710D01*
G37*
G36*
X225773Y518710D02*
X222028Y520261D01*
X219161Y523128D01*
X217610Y526873D01*
X217610Y528138D01*
X227038Y528138D01*
X227038Y518710D01*
X225773Y518710D01*
G37*
G36*
X101562Y518710D02*
X101562Y528138D01*
X110990Y528138D01*
X110990Y526873D01*
X109439Y523128D01*
X106572Y520261D01*
X102827Y518710D01*
X101562Y518710D01*
G37*
G36*
X98773Y518710D02*
X95028Y520261D01*
X92161Y523128D01*
X90610Y526873D01*
X90610Y528138D01*
X100038Y528138D01*
X100038Y518710D01*
X98773Y518710D01*
G37*
G36*
X90610Y351862D02*
X90610Y353127D01*
X92161Y356872D01*
X95028Y359739D01*
X98773Y361290D01*
X100038Y361290D01*
X100038Y351862D01*
X90610Y351862D01*
G37*
G36*
X217610Y351862D02*
X217610Y353127D01*
X219161Y356872D01*
X222028Y359739D01*
X225773Y361290D01*
X227038Y361290D01*
X227038Y351862D01*
X217610Y351862D01*
G37*
G36*
X344610Y351862D02*
X344610Y353127D01*
X346161Y356872D01*
X349028Y359739D01*
X352773Y361290D01*
X354038Y361290D01*
X354038Y351862D01*
X344610Y351862D01*
G37*
G36*
X471610Y351862D02*
X471610Y353127D01*
X473161Y356872D01*
X476028Y359739D01*
X479773Y361290D01*
X481038Y361290D01*
X481038Y351862D01*
X471610Y351862D01*
G37*
G36*
X482562Y351862D02*
X482562Y361290D01*
X483827Y361290D01*
X487572Y359739D01*
X490439Y356872D01*
X491990Y353127D01*
X491990Y351862D01*
X482562Y351862D01*
G37*
G36*
X355562Y351862D02*
X355562Y361290D01*
X356827Y361290D01*
X360572Y359739D01*
X363439Y356872D01*
X364990Y353127D01*
X364990Y351862D01*
X355562Y351862D01*
G37*
G36*
X228562Y351862D02*
X228562Y361290D01*
X229827Y361290D01*
X233572Y359739D01*
X236439Y356872D01*
X237990Y353127D01*
X237990Y351862D01*
X228562Y351862D01*
G37*
G36*
X101562Y351862D02*
X101562Y361290D01*
X102827Y361290D01*
X106572Y359739D01*
X109439Y356872D01*
X110990Y353127D01*
X110990Y351862D01*
X101562Y351862D01*
G37*
G36*
X403775Y341926D02*
X400403Y343323D01*
X397823Y345903D01*
X396426Y349275D01*
X396426Y352925D01*
X397823Y356297D01*
X400403Y358877D01*
X403775Y360274D01*
X407425Y360274D01*
X410797Y358877D01*
X413377Y356297D01*
X414774Y352925D01*
X414774Y349275D01*
X413377Y345903D01*
X410797Y343323D01*
X407425Y341926D01*
X403775Y341926D01*
G37*
G36*
X378375Y341926D02*
X375003Y343323D01*
X372423Y345903D01*
X371026Y349275D01*
X371026Y352925D01*
X372423Y356297D01*
X375003Y358877D01*
X378375Y360274D01*
X382025Y360274D01*
X385397Y358877D01*
X387977Y356297D01*
X389374Y352925D01*
X389374Y349275D01*
X387977Y345903D01*
X385397Y343323D01*
X382025Y341926D01*
X378375Y341926D01*
G37*
G36*
X327575Y341926D02*
X324203Y343323D01*
X321623Y345903D01*
X320226Y349275D01*
X320226Y352925D01*
X321623Y356297D01*
X324203Y358877D01*
X327575Y360274D01*
X331225Y360274D01*
X334597Y358877D01*
X337177Y356297D01*
X338574Y352925D01*
X338574Y349275D01*
X337177Y345903D01*
X334597Y343323D01*
X331225Y341926D01*
X327575Y341926D01*
G37*
G36*
X302175Y341926D02*
X298803Y343323D01*
X296223Y345903D01*
X294826Y349275D01*
X294826Y352925D01*
X296223Y356297D01*
X298803Y358877D01*
X302175Y360274D01*
X305825Y360274D01*
X309197Y358877D01*
X311777Y356297D01*
X313174Y352925D01*
X313174Y349275D01*
X311777Y345903D01*
X309197Y343323D01*
X305825Y341926D01*
X302175Y341926D01*
G37*
G36*
X276775Y341926D02*
X273403Y343323D01*
X270823Y345903D01*
X269426Y349275D01*
X269426Y352925D01*
X270823Y356297D01*
X273403Y358877D01*
X276775Y360274D01*
X280425Y360274D01*
X283797Y358877D01*
X286377Y356297D01*
X287774Y352925D01*
X287774Y349275D01*
X286377Y345903D01*
X283797Y343323D01*
X280425Y341926D01*
X276775Y341926D01*
G37*
G36*
X251375Y341926D02*
X248003Y343323D01*
X245423Y345903D01*
X244026Y349275D01*
X244026Y352925D01*
X245423Y356297D01*
X248003Y358877D01*
X251375Y360274D01*
X255025Y360274D01*
X258397Y358877D01*
X260977Y356297D01*
X262374Y352925D01*
X262374Y349275D01*
X260977Y345903D01*
X258397Y343323D01*
X255025Y341926D01*
X251375Y341926D01*
G37*
G36*
X200575Y341926D02*
X197203Y343323D01*
X194623Y345903D01*
X193226Y349275D01*
X193226Y352925D01*
X194623Y356297D01*
X197203Y358877D01*
X200575Y360274D01*
X204225Y360274D01*
X207597Y358877D01*
X210177Y356297D01*
X211574Y352925D01*
X211574Y349275D01*
X210177Y345903D01*
X207597Y343323D01*
X204225Y341926D01*
X200575Y341926D01*
G37*
G36*
X175175Y341926D02*
X171803Y343323D01*
X169223Y345903D01*
X167826Y349275D01*
X167826Y352925D01*
X169223Y356297D01*
X171803Y358877D01*
X175175Y360274D01*
X178825Y360274D01*
X182197Y358877D01*
X184777Y356297D01*
X186174Y352925D01*
X186174Y349275D01*
X184777Y345903D01*
X182197Y343323D01*
X178825Y341926D01*
X175175Y341926D01*
G37*
G36*
X149775Y341926D02*
X146403Y343323D01*
X143823Y345903D01*
X142426Y349275D01*
X142426Y352925D01*
X143823Y356297D01*
X146403Y358877D01*
X149775Y360274D01*
X153425Y360274D01*
X156797Y358877D01*
X159377Y356297D01*
X160774Y352925D01*
X160774Y349275D01*
X159377Y345903D01*
X156797Y343323D01*
X153425Y341926D01*
X149775Y341926D01*
G37*
G36*
X73575Y341926D02*
X70203Y343323D01*
X67623Y345903D01*
X66226Y349275D01*
X66226Y352925D01*
X67623Y356297D01*
X70203Y358877D01*
X73575Y360274D01*
X77225Y360274D01*
X80597Y358877D01*
X83177Y356297D01*
X84574Y352925D01*
X84574Y349275D01*
X83177Y345903D01*
X80597Y343323D01*
X77225Y341926D01*
X73575Y341926D01*
G37*
G36*
X48175Y341926D02*
X44803Y343323D01*
X42223Y345903D01*
X40826Y349275D01*
X40826Y352925D01*
X42223Y356297D01*
X44803Y358877D01*
X48175Y360274D01*
X51825Y360274D01*
X55197Y358877D01*
X57777Y356297D01*
X59174Y352925D01*
X59174Y349275D01*
X57777Y345903D01*
X55197Y343323D01*
X51825Y341926D01*
X48175Y341926D01*
G37*
G36*
X505375Y341926D02*
X502003Y343323D01*
X499423Y345903D01*
X498026Y349275D01*
X498026Y352925D01*
X499423Y356297D01*
X502003Y358877D01*
X505375Y360274D01*
X509025Y360274D01*
X512397Y358877D01*
X514977Y356297D01*
X516374Y352925D01*
X516374Y349275D01*
X514977Y345903D01*
X512397Y343323D01*
X509025Y341926D01*
X505375Y341926D01*
G37*
G36*
X530775Y341926D02*
X527403Y343323D01*
X524823Y345903D01*
X523426Y349275D01*
X523426Y352925D01*
X524823Y356297D01*
X527403Y358877D01*
X530775Y360274D01*
X534425Y360274D01*
X537797Y358877D01*
X540377Y356297D01*
X541774Y352925D01*
X541774Y349275D01*
X540377Y345903D01*
X537797Y343323D01*
X534425Y341926D01*
X530775Y341926D01*
G37*
G36*
X454575Y341926D02*
X451203Y343323D01*
X448623Y345903D01*
X447226Y349275D01*
X447226Y352925D01*
X448623Y356297D01*
X451203Y358877D01*
X454575Y360274D01*
X458225Y360274D01*
X461597Y358877D01*
X464177Y356297D01*
X465574Y352925D01*
X465574Y349275D01*
X464177Y345903D01*
X461597Y343323D01*
X458225Y341926D01*
X454575Y341926D01*
G37*
G36*
X429175Y341926D02*
X425803Y343323D01*
X423223Y345903D01*
X421826Y349275D01*
X421826Y352925D01*
X423223Y356297D01*
X425803Y358877D01*
X429175Y360274D01*
X432825Y360274D01*
X436197Y358877D01*
X438777Y356297D01*
X440174Y352925D01*
X440174Y349275D01*
X438777Y345903D01*
X436197Y343323D01*
X432825Y341926D01*
X429175Y341926D01*
G37*
G36*
X124375Y341926D02*
X121003Y343323D01*
X118423Y345903D01*
X117026Y349275D01*
X117026Y352925D01*
X118423Y356297D01*
X121003Y358877D01*
X124375Y360274D01*
X128025Y360274D01*
X131397Y358877D01*
X133977Y356297D01*
X135374Y352925D01*
X135374Y349275D01*
X133977Y345903D01*
X131397Y343323D01*
X128025Y341926D01*
X124375Y341926D01*
G37*
G36*
X482562Y340910D02*
X482562Y350338D01*
X491990Y350338D01*
X491990Y349073D01*
X490439Y345328D01*
X487572Y342461D01*
X483827Y340910D01*
X482562Y340910D01*
G37*
G36*
X479773Y340910D02*
X476028Y342461D01*
X473161Y345328D01*
X471610Y349073D01*
X471610Y350338D01*
X481038Y350338D01*
X481038Y340910D01*
X479773Y340910D01*
G37*
G36*
X355562Y340910D02*
X355562Y350338D01*
X364990Y350338D01*
X364990Y349073D01*
X363439Y345328D01*
X360572Y342461D01*
X356827Y340910D01*
X355562Y340910D01*
G37*
G36*
X352773Y340910D02*
X349028Y342461D01*
X346161Y345328D01*
X344610Y349073D01*
X344610Y350338D01*
X354038Y350338D01*
X354038Y340910D01*
X352773Y340910D01*
G37*
G36*
X228562Y340910D02*
X228562Y350338D01*
X237990Y350338D01*
X237990Y349073D01*
X236439Y345328D01*
X233572Y342461D01*
X229827Y340910D01*
X228562Y340910D01*
G37*
G36*
X225773Y340910D02*
X222028Y342461D01*
X219161Y345328D01*
X217610Y349073D01*
X217610Y350338D01*
X227038Y350338D01*
X227038Y340910D01*
X225773Y340910D01*
G37*
G36*
X101562Y340910D02*
X101562Y350338D01*
X110990Y350338D01*
X110990Y349073D01*
X109439Y345328D01*
X106572Y342461D01*
X102827Y340910D01*
X101562Y340910D01*
G37*
G36*
X98773Y340910D02*
X95028Y342461D01*
X92161Y345328D01*
X90610Y349073D01*
X90610Y350338D01*
X100038Y350338D01*
X100038Y340910D01*
X98773Y340910D01*
G37*
G36*
X806490Y263340D02*
X799710Y265157D01*
X793630Y268667D01*
X788667Y273630D01*
X785157Y279710D01*
X783340Y286490D01*
X783340Y293510D01*
X785157Y300290D01*
X788667Y306370D01*
X793630Y311333D01*
X799710Y314843D01*
X806490Y316660D01*
X813510Y316660D01*
X820290Y314843D01*
X826370Y311333D01*
X831333Y306370D01*
X834843Y300290D01*
X836660Y293510D01*
X836660Y286490D01*
X834843Y279710D01*
X831333Y273630D01*
X826370Y268667D01*
X820290Y265157D01*
X813510Y263340D01*
X806490Y263340D01*
G37*
G36*
X46490Y263340D02*
X39710Y265157D01*
X33630Y268667D01*
X28667Y273630D01*
X25157Y279710D01*
X23340Y286490D01*
X23340Y293510D01*
X25157Y300290D01*
X28667Y306370D01*
X33630Y311333D01*
X39710Y314843D01*
X46490Y316660D01*
X53510Y316660D01*
X60290Y314843D01*
X66370Y311333D01*
X71333Y306370D01*
X74843Y300290D01*
X76660Y293510D01*
X76660Y286490D01*
X74843Y279710D01*
X71333Y273630D01*
X66370Y268667D01*
X60290Y265157D01*
X53510Y263340D01*
X46490Y263340D01*
G37*
G36*
X468175Y268926D02*
X464803Y270323D01*
X462223Y272903D01*
X460826Y276275D01*
X460826Y279925D01*
X462223Y283297D01*
X464803Y285877D01*
X468175Y287274D01*
X471825Y287274D01*
X475197Y285877D01*
X477777Y283297D01*
X479174Y279925D01*
X479174Y276275D01*
X477777Y272903D01*
X475197Y270323D01*
X471825Y268926D01*
X468175Y268926D01*
G37*
G36*
X468175Y243526D02*
X464803Y244923D01*
X462223Y247503D01*
X460826Y250875D01*
X460826Y254525D01*
X462223Y257897D01*
X464803Y260477D01*
X468175Y261874D01*
X471825Y261874D01*
X475197Y260477D01*
X477777Y257897D01*
X479174Y254525D01*
X479174Y250875D01*
X477777Y247503D01*
X475197Y244923D01*
X471825Y243526D01*
X468175Y243526D01*
G37*
G36*
X415475Y237026D02*
X412103Y238423D01*
X409523Y241003D01*
X408126Y244375D01*
X408126Y248025D01*
X409523Y251397D01*
X412103Y253977D01*
X415475Y255374D01*
X419125Y255374D01*
X422497Y253977D01*
X425077Y251397D01*
X426474Y248025D01*
X426474Y244375D01*
X425077Y241003D01*
X422497Y238423D01*
X419125Y237026D01*
X415475Y237026D01*
G37*
G36*
X468175Y218126D02*
X464803Y219523D01*
X462223Y222103D01*
X460826Y225475D01*
X460826Y229125D01*
X462223Y232497D01*
X464803Y235077D01*
X468175Y236474D01*
X471825Y236474D01*
X475197Y235077D01*
X477777Y232497D01*
X479174Y229125D01*
X479174Y225475D01*
X477777Y222103D01*
X475197Y219523D01*
X471825Y218126D01*
X468175Y218126D01*
G37*
G36*
X407110Y221562D02*
X407110Y222827D01*
X408661Y226572D01*
X411528Y229439D01*
X415273Y230990D01*
X416538Y230990D01*
X416538Y221562D01*
X407110Y221562D01*
G37*
G36*
X418062Y221562D02*
X418062Y230990D01*
X419327Y230990D01*
X423072Y229439D01*
X425939Y226572D01*
X427490Y222827D01*
X427490Y221562D01*
X418062Y221562D01*
G37*
G36*
X418062Y210610D02*
X418062Y220038D01*
X427490Y220038D01*
X427490Y218773D01*
X425939Y215028D01*
X423072Y212161D01*
X419327Y210610D01*
X418062Y210610D01*
G37*
G36*
X415273Y210610D02*
X411528Y212161D01*
X408661Y215028D01*
X407110Y218773D01*
X407110Y220038D01*
X416538Y220038D01*
X416538Y210610D01*
X415273Y210610D01*
G37*
G36*
X459810Y202662D02*
X459810Y203927D01*
X461361Y207672D01*
X464228Y210539D01*
X467973Y212090D01*
X469238Y212090D01*
X469238Y202662D01*
X459810Y202662D01*
G37*
G36*
X470762Y202662D02*
X470762Y212090D01*
X472027Y212090D01*
X475772Y210539D01*
X478639Y207672D01*
X480190Y203927D01*
X480190Y202662D01*
X470762Y202662D01*
G37*
G36*
X415475Y186226D02*
X412103Y187623D01*
X409523Y190203D01*
X408126Y193575D01*
X408126Y197225D01*
X409523Y200597D01*
X412103Y203177D01*
X415475Y204574D01*
X419125Y204574D01*
X422497Y203177D01*
X425077Y200597D01*
X426474Y197225D01*
X426474Y193575D01*
X425077Y190203D01*
X422497Y187623D01*
X419125Y186226D01*
X415475Y186226D01*
G37*
G36*
X470762Y191710D02*
X470762Y201138D01*
X480190Y201138D01*
X480190Y199873D01*
X478639Y196128D01*
X475772Y193261D01*
X472027Y191710D01*
X470762Y191710D01*
G37*
G36*
X467973Y191710D02*
X464228Y193261D01*
X461361Y196128D01*
X459810Y199873D01*
X459810Y201138D01*
X469238Y201138D01*
X469238Y191710D01*
X467973Y191710D01*
G37*
G36*
X415475Y160826D02*
X412103Y162223D01*
X409523Y164803D01*
X408126Y168175D01*
X408126Y171825D01*
X409523Y175197D01*
X412103Y177777D01*
X415475Y179174D01*
X419125Y179174D01*
X422497Y177777D01*
X425077Y175197D01*
X426474Y171825D01*
X426474Y168175D01*
X425077Y164803D01*
X422497Y162223D01*
X419125Y160826D01*
X415475Y160826D01*
G37*
G36*
X415475Y135426D02*
X412103Y136823D01*
X409523Y139403D01*
X408126Y142775D01*
X408126Y146425D01*
X409523Y149797D01*
X412103Y152377D01*
X415475Y153774D01*
X419125Y153774D01*
X422497Y152377D01*
X425077Y149797D01*
X426474Y146425D01*
X426474Y142775D01*
X425077Y139403D01*
X422497Y136823D01*
X419125Y135426D01*
X415475Y135426D01*
G37*
G36*
X777075Y131326D02*
X773887Y132647D01*
X771447Y135087D01*
X770126Y138275D01*
X770126Y141725D01*
X771447Y144913D01*
X773887Y147353D01*
X777075Y148674D01*
X780525Y148674D01*
X783713Y147353D01*
X786153Y144913D01*
X787474Y141725D01*
X787474Y138275D01*
X786153Y135087D01*
X783713Y132647D01*
X780525Y131326D01*
X777075Y131326D01*
G37*
G36*
X659475Y131326D02*
X656287Y132647D01*
X653847Y135087D01*
X652526Y138275D01*
X652526Y141725D01*
X653847Y144913D01*
X656287Y147353D01*
X659475Y148674D01*
X662925Y148674D01*
X666113Y147353D01*
X668553Y144913D01*
X669874Y141725D01*
X669874Y138275D01*
X668553Y135087D01*
X666113Y132647D01*
X662925Y131326D01*
X659475Y131326D01*
G37*
G36*
X597075Y131326D02*
X593887Y132647D01*
X591447Y135087D01*
X590126Y138275D01*
X590126Y141725D01*
X591447Y144913D01*
X593887Y147353D01*
X597075Y148674D01*
X600525Y148674D01*
X603713Y147353D01*
X606153Y144913D01*
X607474Y141725D01*
X607474Y138275D01*
X606153Y135087D01*
X603713Y132647D01*
X600525Y131326D01*
X597075Y131326D01*
G37*
G36*
X479475Y131326D02*
X476287Y132647D01*
X473847Y135087D01*
X472526Y138275D01*
X472526Y141725D01*
X473847Y144913D01*
X476287Y147353D01*
X479475Y148674D01*
X482925Y148674D01*
X486113Y147353D01*
X488553Y144913D01*
X489874Y141725D01*
X489874Y138275D01*
X488553Y135087D01*
X486113Y132647D01*
X482925Y131326D01*
X479475Y131326D01*
G37*
G36*
X415475Y110026D02*
X412103Y111423D01*
X409523Y114003D01*
X408126Y117375D01*
X408126Y121025D01*
X409523Y124397D01*
X412103Y126977D01*
X415475Y128374D01*
X419125Y128374D01*
X422497Y126977D01*
X425077Y124397D01*
X426474Y121025D01*
X426474Y117375D01*
X425077Y114003D01*
X422497Y111423D01*
X419125Y110026D01*
X415475Y110026D01*
G37*
G36*
X415475Y84626D02*
X412103Y86023D01*
X409523Y88603D01*
X408126Y91975D01*
X408126Y95625D01*
X409523Y98997D01*
X412103Y101577D01*
X415475Y102974D01*
X419125Y102974D01*
X422497Y101577D01*
X425077Y98997D01*
X426474Y95625D01*
X426474Y91975D01*
X425077Y88603D01*
X422497Y86023D01*
X419125Y84626D01*
X415475Y84626D01*
G37*
G36*
X642710Y75762D02*
X642710Y77445D01*
X644581Y81962D01*
X648038Y85419D01*
X652555Y87290D01*
X654238Y87290D01*
X654238Y75762D01*
X642710Y75762D01*
G37*
G36*
X572710Y75762D02*
X572710Y77445D01*
X574581Y81962D01*
X578038Y85419D01*
X582555Y87290D01*
X584238Y87290D01*
X584238Y75762D01*
X572710Y75762D01*
G37*
G36*
X522710Y75762D02*
X522710Y77445D01*
X524581Y81962D01*
X528038Y85419D01*
X532555Y87290D01*
X534238Y87290D01*
X534238Y75762D01*
X522710Y75762D01*
G37*
G36*
X452710Y75762D02*
X452710Y77445D01*
X454581Y81962D01*
X458038Y85419D01*
X462555Y87290D01*
X464238Y87290D01*
X464238Y75762D01*
X452710Y75762D01*
G37*
G36*
X465762Y75762D02*
X465762Y87290D01*
X467445Y87290D01*
X471962Y85419D01*
X475419Y81962D01*
X477290Y77445D01*
X477290Y75762D01*
X465762Y75762D01*
G37*
G36*
X535762Y75762D02*
X535762Y87290D01*
X537445Y87290D01*
X541962Y85419D01*
X545419Y81962D01*
X547290Y77445D01*
X547290Y75762D01*
X535762Y75762D01*
G37*
G36*
X585762Y75762D02*
X585762Y87290D01*
X587445Y87290D01*
X591962Y85419D01*
X595419Y81962D01*
X597290Y77445D01*
X597290Y75762D01*
X585762Y75762D01*
G37*
G36*
X655762Y75762D02*
X655762Y87290D01*
X657445Y87290D01*
X661962Y85419D01*
X665419Y81962D01*
X667290Y77445D01*
X667290Y75762D01*
X655762Y75762D01*
G37*
G36*
X46490Y23340D02*
X39710Y25157D01*
X33630Y28667D01*
X28667Y33630D01*
X25157Y39710D01*
X23340Y46490D01*
X23340Y53510D01*
X25157Y60290D01*
X28667Y66370D01*
X33630Y71333D01*
X39710Y74843D01*
X46490Y76660D01*
X53510Y76660D01*
X60290Y74843D01*
X66370Y71333D01*
X71333Y66370D01*
X74843Y60290D01*
X76660Y53510D01*
X76660Y46490D01*
X74843Y39710D01*
X71333Y33630D01*
X66370Y28667D01*
X60290Y25157D01*
X53510Y23340D01*
X46490Y23340D01*
G37*
G36*
X655762Y62710D02*
X655762Y74238D01*
X667290Y74238D01*
X667290Y72555D01*
X665419Y68038D01*
X661962Y64581D01*
X657445Y62710D01*
X655762Y62710D01*
G37*
G36*
X652555Y62710D02*
X648038Y64581D01*
X644581Y68038D01*
X642710Y72555D01*
X642710Y74238D01*
X654238Y74238D01*
X654238Y62710D01*
X652555Y62710D01*
G37*
G36*
X585762Y62710D02*
X585762Y74238D01*
X597290Y74238D01*
X597290Y72555D01*
X595419Y68038D01*
X591962Y64581D01*
X587445Y62710D01*
X585762Y62710D01*
G37*
G36*
X582555Y62710D02*
X578038Y64581D01*
X574581Y68038D01*
X572710Y72555D01*
X572710Y74238D01*
X584238Y74238D01*
X584238Y62710D01*
X582555Y62710D01*
G37*
G36*
X535762Y62710D02*
X535762Y74238D01*
X547290Y74238D01*
X547290Y72555D01*
X545419Y68038D01*
X541962Y64581D01*
X537445Y62710D01*
X535762Y62710D01*
G37*
G36*
X532555Y62710D02*
X528038Y64581D01*
X524581Y68038D01*
X522710Y72555D01*
X522710Y74238D01*
X534238Y74238D01*
X534238Y62710D01*
X532555Y62710D01*
G37*
G36*
X465762Y62710D02*
X465762Y74238D01*
X477290Y74238D01*
X477290Y72555D01*
X475419Y68038D01*
X471962Y64581D01*
X467445Y62710D01*
X465762Y62710D01*
G37*
G36*
X462555Y62710D02*
X458038Y64581D01*
X454581Y68038D01*
X452710Y72555D01*
X452710Y74238D01*
X464238Y74238D01*
X464238Y62710D01*
X462555Y62710D01*
G37*
G36*
X785424Y50571D02*
X781959Y52007D01*
X779307Y54659D01*
X777871Y58124D01*
X777871Y61876D01*
X779307Y65341D01*
X781959Y67994D01*
X785424Y69429D01*
X789176Y69429D01*
X792641Y67994D01*
X795294Y65341D01*
X796729Y61876D01*
X796729Y58124D01*
X795294Y54659D01*
X792641Y52007D01*
X789176Y50571D01*
X785424Y50571D01*
G37*
G36*
X810824Y50571D02*
X807359Y52007D01*
X804707Y54659D01*
X803271Y58124D01*
X803271Y61876D01*
X804707Y65341D01*
X807359Y67994D01*
X810824Y69429D01*
X814576Y69429D01*
X818041Y67994D01*
X820694Y65341D01*
X822129Y61876D01*
X822129Y58124D01*
X820694Y54659D01*
X818041Y52007D01*
X814576Y50571D01*
X810824Y50571D01*
G37*
G36*
X730824Y50571D02*
X727359Y52007D01*
X724707Y54659D01*
X723271Y58124D01*
X723271Y61876D01*
X724707Y65341D01*
X727359Y67994D01*
X730824Y69429D01*
X734576Y69429D01*
X738041Y67994D01*
X740694Y65341D01*
X742129Y61876D01*
X742129Y58124D01*
X740694Y54659D01*
X738041Y52007D01*
X734576Y50571D01*
X730824Y50571D01*
G37*
G36*
X705424Y50571D02*
X701959Y52007D01*
X699307Y54659D01*
X697871Y58124D01*
X697871Y61876D01*
X699307Y65341D01*
X701959Y67994D01*
X705424Y69429D01*
X709176Y69429D01*
X712641Y67994D01*
X715294Y65341D01*
X716729Y61876D01*
X716729Y58124D01*
X715294Y54659D01*
X712641Y52007D01*
X709176Y50571D01*
X705424Y50571D01*
G37*
G36*
X512420Y50762D02*
X512420Y52005D01*
X513955Y55710D01*
X516790Y58545D01*
X520495Y60080D01*
X521738Y60080D01*
X521738Y50762D01*
X512420Y50762D01*
G37*
G36*
X632420Y50762D02*
X632420Y52005D01*
X633955Y55710D01*
X636790Y58545D01*
X640495Y60080D01*
X641738Y60080D01*
X641738Y50762D01*
X632420Y50762D01*
G37*
G36*
X643262Y50762D02*
X643262Y60080D01*
X644505Y60080D01*
X648210Y58545D01*
X651045Y55710D01*
X652580Y52005D01*
X652580Y50762D01*
X643262Y50762D01*
G37*
G36*
X523262Y50762D02*
X523262Y60080D01*
X524505Y60080D01*
X528210Y58545D01*
X531045Y55710D01*
X532580Y52005D01*
X532580Y50762D01*
X523262Y50762D01*
G37*
G36*
X475697Y40936D02*
X472366Y42316D01*
X469816Y44866D01*
X468436Y48197D01*
X468436Y51803D01*
X469816Y55134D01*
X472366Y57684D01*
X475697Y59064D01*
X479303Y59064D01*
X482634Y57684D01*
X485184Y55134D01*
X486564Y51803D01*
X486564Y48197D01*
X485184Y44866D01*
X482634Y42316D01*
X479303Y40936D01*
X475697Y40936D01*
G37*
G36*
X595697Y40936D02*
X592366Y42316D01*
X589816Y44866D01*
X588436Y48197D01*
X588436Y51803D01*
X589816Y55134D01*
X592366Y57684D01*
X595697Y59064D01*
X599303Y59064D01*
X602634Y57684D01*
X605184Y55134D01*
X606564Y51803D01*
X606564Y48197D01*
X605184Y44866D01*
X602634Y42316D01*
X599303Y40936D01*
X595697Y40936D01*
G37*
G36*
X643262Y39920D02*
X643262Y49238D01*
X652580Y49238D01*
X652580Y47995D01*
X651045Y44290D01*
X648210Y41455D01*
X644505Y39920D01*
X643262Y39920D01*
G37*
G36*
X640495Y39920D02*
X636790Y41455D01*
X633955Y44290D01*
X632420Y47995D01*
X632420Y49238D01*
X641738Y49238D01*
X641738Y39920D01*
X640495Y39920D01*
G37*
G36*
X523262Y39920D02*
X523262Y49238D01*
X532580Y49238D01*
X532580Y47995D01*
X531045Y44290D01*
X528210Y41455D01*
X524505Y39920D01*
X523262Y39920D01*
G37*
G36*
X520495Y39920D02*
X516790Y41455D01*
X513955Y44290D01*
X512420Y47995D01*
X512420Y49238D01*
X521738Y49238D01*
X521738Y39920D01*
X520495Y39920D01*
G37*
%LPD*%
D10*
X522500Y50000D03*
X477500Y50000D03*
D11*
X535000Y75000D03*
X465000Y75000D03*
D10*
X642500Y50000D03*
X597500Y50000D03*
D11*
X655000Y75000D03*
X585000Y75000D03*
D12*
X50000Y351100D03*
X75400Y351100D03*
X100800Y351100D03*
X126200Y351100D03*
X151600Y351100D03*
X177000Y351100D03*
X202400Y351100D03*
X227800Y351100D03*
X253200Y351100D03*
X278600Y351100D03*
X304000Y351100D03*
X329400Y351100D03*
X354800Y351100D03*
X380200Y351100D03*
X405600Y351100D03*
X431000Y351100D03*
X456400Y351100D03*
X481800Y351100D03*
X507200Y351100D03*
X532600Y351100D03*
X532600Y528900D03*
X507200Y528900D03*
X481800Y528900D03*
X456400Y528900D03*
X431000Y528900D03*
X405600Y528900D03*
X380200Y528900D03*
X354800Y528900D03*
X329400Y528900D03*
X304000Y528900D03*
X278600Y528900D03*
X253200Y528900D03*
X227800Y528900D03*
X202400Y528900D03*
X177000Y528900D03*
X151600Y528900D03*
X126200Y528900D03*
X100800Y528900D03*
X75400Y528900D03*
X50000Y528900D03*
X417300Y93800D03*
X417300Y119200D03*
X417300Y144600D03*
X417300Y170000D03*
X417300Y195400D03*
X417300Y220800D03*
X417300Y246200D03*
X470000Y201900D03*
X470000Y227300D03*
X470000Y252700D03*
X470000Y278100D03*
D13*
X481200Y140000D03*
X598800Y140000D03*
X661200Y140000D03*
X778800Y140000D03*
D14*
X732700Y60000D03*
X707300Y60000D03*
X812700Y60000D03*
X787300Y60000D03*
M02*
