M48
;GenerationSoftware,Autodesk,EAGLE,9.7.0*%
;CreationDate,2022-04-08T09:38:53Z*%
FMAT,2
ICI,OFF
METRIC,TZ,000.000
T7C0.830
T6C0.981
T5C1.000
T4C1.020
T3C1.300
T2C3.300
%
G90
M71
T2
X5000Y5000
X5000Y29000
X81000Y53000
X81000Y29000
T3
X65500Y7500
X58500Y7500
X53500Y7500
X46500Y7500
T4
X47000Y20190
X47000Y22730
X15160Y35110
X47000Y25270
X5000Y35110
X7540Y35110
X10080Y35110
X12620Y35110
X47000Y27810
X17700Y35110
X20240Y35110
X22780Y35110
X25320Y35110
X27860Y35110
X30400Y35110
X32940Y35110
X35480Y35110
X38020Y35110
X40560Y35110
X43100Y35110
X45640Y35110
X48180Y35110
X50720Y35110
X53260Y35110
X53260Y52890
X50720Y52890
X48180Y52890
X45640Y52890
X43100Y52890
X40560Y52890
X38020Y52890
X35480Y52890
X32940Y52890
X30400Y52890
X27860Y52890
X25320Y52890
X22780Y52890
X20240Y52890
X17700Y52890
X15160Y52890
X12620Y52890
X10080Y52890
X7540Y52890
X5000Y52890
X41730Y9380
X41730Y11920
X41730Y14460
X41730Y17000
X41730Y19540
X41730Y22080
X41730Y24620
T5
X52250Y5000
X47750Y5000
X59750Y5000
X64250Y5000
T6
X73270Y6000
X70730Y6000
X81270Y6000
X78730Y6000
T7
X48120Y14000
X59880Y14000
X66120Y14000
X77880Y14000
M30