G04 EAGLE Gerber RS-274X export*
G75*
%MOMM*%
%FSLAX34Y34*%
%LPD*%
%INSoldermask Top*%
%IPPOS*%
%AMOC8*
5,1,8,0,0,1.08239X$1,22.5*%
G01*
G04 Define Apertures*
%ADD10C,3.503200*%
%ADD11C,1.711200*%
%ADD12C,2.153200*%
%ADD13C,1.733200*%
%ADD14C,1.633200*%
%ADD15C,1.784200*%
D10*
X50000Y50000D03*
X50000Y290000D03*
X810000Y530000D03*
X810000Y290000D03*
D11*
X522500Y50000D03*
X477500Y50000D03*
D12*
X535000Y75000D03*
X465000Y75000D03*
D11*
X642500Y50000D03*
X597500Y50000D03*
D12*
X655000Y75000D03*
X585000Y75000D03*
D13*
X50000Y351100D03*
X75400Y351100D03*
X100800Y351100D03*
X126200Y351100D03*
X151600Y351100D03*
X177000Y351100D03*
X202400Y351100D03*
X227800Y351100D03*
X253200Y351100D03*
X278600Y351100D03*
X304000Y351100D03*
X329400Y351100D03*
X354800Y351100D03*
X380200Y351100D03*
X405600Y351100D03*
X431000Y351100D03*
X456400Y351100D03*
X481800Y351100D03*
X507200Y351100D03*
X532600Y351100D03*
X532600Y528900D03*
X507200Y528900D03*
X481800Y528900D03*
X456400Y528900D03*
X431000Y528900D03*
X405600Y528900D03*
X380200Y528900D03*
X354800Y528900D03*
X329400Y528900D03*
X304000Y528900D03*
X278600Y528900D03*
X253200Y528900D03*
X227800Y528900D03*
X202400Y528900D03*
X177000Y528900D03*
X151600Y528900D03*
X126200Y528900D03*
X100800Y528900D03*
X75400Y528900D03*
X50000Y528900D03*
X417300Y93800D03*
X417300Y119200D03*
X417300Y144600D03*
X417300Y170000D03*
X417300Y195400D03*
X417300Y220800D03*
X417300Y246200D03*
X470000Y201900D03*
X470000Y227300D03*
X470000Y252700D03*
X470000Y278100D03*
D14*
X481200Y140000D03*
X598800Y140000D03*
X661200Y140000D03*
X778800Y140000D03*
D15*
X732700Y60000D03*
X707300Y60000D03*
X812700Y60000D03*
X787300Y60000D03*
M02*
